PathFileType	4	(X/Y/Z)	C:/Users/opensim2020/Desktop/walking_exp_matlab/subject02_walking04_straight_02.trc	
DataRate	CameraRate	NumFrames	NumMarkers	Units	OrigDataRate	OrigDataStartFrame	OrigNumFrames	
100.00	100.00	4	42	mm	100.00	1551	220	
Frame#	Time	LFHD			RFHD			LBHD			RBHD			C7			T10			CLAV			STRN			RBAK			LSHO			LUPA			LELB			LFRM			LWRA			LWRB			LFIN			RSHO			RUPA			RELB			RFRM			RWRA			RWRB			RFIN			LASI			RASI			LPSI			RPSI			LTHI			LKNE			LTIB			LANK			LHEE			LTOE			RTHI			RKNE			RTIB			RANK			RHEE			RTOE			*39			*40			*41			
		X1	Y1	Z1	X2	Y2	Z2	X3	Y3	Z3	X4	Y4	Z4	X5	Y5	Z5	X6	Y6	Z6	X7	Y7	Z7	X8	Y8	Z8	X9	Y9	Z9	X10	Y10	Z10	X11	Y11	Z11	X12	Y12	Z12	X13	Y13	Z13	X14	Y14	Z14	X15	Y15	Z15	X16	Y16	Z16	X17	Y17	Z17	X18	Y18	Z18	X19	Y19	Z19	X20	Y20	Z20	X21	Y21	Z21	X22	Y22	Z22	X23	Y23	Z23	X24	Y24	Z24	X25	Y25	Z25	X26	Y26	Z26	X27	Y27	Z27	X28	Y28	Z28	X29	Y29	Z29	X30	Y30	Z30	X31	Y31	Z31	X32	Y32	Z32	X33	Y33	Z33	X34	Y34	Z34	X35	Y35	Z35	X36	Y36	Z36	X37	Y37	Z37	X38	Y38	Z38	X39	Y39	Z39	X40	Y40	Z40	X41	Y41	Z41	X42	Y42	Z42	

56	0.550	1499.58911	617.52386	1718.06348	1356.91675	627.68188	1700.10449	1515.58459	750.43079	1648.66382	1375.18994	772.74591	1630.70654	1437.26318	816.91656	1511.29297	1426.22205	877.80365	1235.51514	1453.25195	677.25299	1437.97144	1434.31873	629.81494	1267.57434	1362.33032	876.65247	1341.37134	1618.80200	757.08948	1475.65076	1689.05347	830.03375	1287.25122	1691.44434	870.44995	1151.74048	1700.98926	902.28729	1023.25055	1664.61621	886.78607	885.48022	1700.16699	928.63263	902.09680	1693.95447	936.02832	833.70959	1256.06152	730.99896	1485.19360	1156.75391	721.12616	1301.50452	1127.47388	667.97791	1163.94946	1115.95813	592.46667	1067.75159	1143.89282	498.72076	974.16235	1106.59912	535.47235	950.91193	1108.61145	473.38898	914.87372	1546.28027	624.98743	979.19135	1287.41479	650.40955	958.72791	1484.35791	845.28052	1013.31378	1371.61450	859.46875	1013.63428	1622.96191	622.05304	679.61029	1599.22766	596.13538	479.83276	1606.77051	600.08185	284.81204	1590.68884	534.94116	71.22769	1540.06763	562.05273	37.38633	1599.13953	377.81122	61.12311	1234.73816	790.83301	663.34106	1269.79749	840.26617	458.60031	1268.04175	953.46912	305.14569	1304.09119	1045.65210	133.90047	1360.54102	1095.25830	92.46524	1293.40564	914.63544	40.91256	1416.00659	721.79065	1788.51794	-3360.27612	2845.03394	1033.85498			 
57	0.560	1502.53809	608.24426	1718.16272	1359.98096	618.64532	1700.14880	1518.77197	741.00452	1648.47327	1378.43469	763.53735	1630.22266	1440.92944	807.89874	1510.46118	1430.26758	867.46356	1234.81775	1456.44189	667.64502	1437.74573	1437.60889	619.78906	1267.80188	1366.49731	866.97839	1340.36597	1622.33240	747.07098	1474.95715	1692.50000	818.98877	1285.78711	1694.84998	859.03217	1150.42151	1704.42053	890.89221	1022.02838	1667.97913	875.94196	884.42603	1703.67688	917.38629	900.93683	1697.47302	925.01880	832.63031	1259.27539	722.36511	1484.48730	1159.92920	712.74097	1300.60400	1130.34192	659.54218	1163.03894	1118.95959	583.29565	1067.33936	1146.70105	488.92816	974.32269	1109.76611	525.63641	950.71350	1111.65576	463.33856	915.10577	1549.63684	613.15265	979.42297	1290.97986	639.11212	958.18463	1488.68103	833.51575	1012.14948	1376.06335	848.46478	1012.15033	1626.32471	611.68268	680.25891	1602.75696	587.17639	479.84012	1607.03101	591.52002	284.72012	1593.87537	529.67365	70.39534	1542.89087	558.71808	38.46725	1597.38647	372.29294	55.45162	1236.51831	780.68567	663.30420	1269.87598	830.37061	458.85034	1268.39124	946.90411	307.92468	1303.51929	1042.31824	138.57750	1360.04138	1092.44910	98.63056	1293.05127	914.05615	41.02599	1418.89294	712.80792	1788.20288	-3360.25098	2845.15674	1033.80566			 
58	0.570	1505.36975	599.08185	1718.43262	1362.90552	609.66333	1700.15967	1521.99500	731.61365	1648.62195	1381.66516	754.38245	1630.11121	1444.64209	798.63678	1510.18176	1434.00293	857.11169	1234.16272	1459.58984	658.20056	1437.85645	1440.73901	609.74054	1268.06421	1370.57397	857.44885	1339.56274	1625.70911	737.03540	1474.50708	1696.55872	807.92328	1284.77515	1698.33142	847.17627	1149.06555	1708.04761	878.95374	1020.79639	1671.58020	864.27142	883.25763	1707.23108	905.51843	899.67932	1701.32434	913.25427	831.55103	1262.13135	713.49518	1483.88977	1163.49548	704.95050	1299.63416	1133.78870	650.91974	1162.06958	1121.78589	574.33118	1066.75293	1149.59937	479.63556	974.44373	1112.95142	516.37549	950.46729	1114.65332	453.91275	915.20575	1552.81445	601.55548	979.77460	1294.59595	627.47247	957.78308	1492.91248	821.91327	1011.65991	1380.42371	837.46912	1010.73846	1630.12939	601.87958	680.90063	1606.42810	577.07428	480.72906	1610.66687	583.47394	286.00854	1596.34656	525.13171	69.62962	1545.69983	556.81616	39.92954	1596.05920	368.37250	49.10889	1238.39050	769.94171	663.47107	1269.11670	819.93750	459.48068	1268.43689	939.55945	311.14920	1302.87622	1038.39636	143.87503	1359.66199	1088.85449	105.52045	1292.74707	913.31665	41.29905	1421.89673	703.83588	1788.21448	-3357.41919	2845.77075	1033.85193			 
59	0.580	1508.30676	589.73145	1718.77002	1365.70874	600.56146	1700.09778	1525.25183	722.24847	1648.91016	1384.93616	745.20563	1630.15784	1448.36487	789.12915	1510.34009	1437.51196	846.82391	1233.73193	1462.83850	648.76758	1438.18640	1443.89783	599.76837	1268.56641	1374.24939	847.72131	1338.90381	1629.48950	727.14459	1474.30383	1700.10034	796.29681	1283.52905	1701.63464	834.72064	1147.63879	1711.48364	866.32123	1019.52289	1675.17493	851.95392	882.01917	1711.21338	893.10175	898.74030	1705.47791	900.72931	830.58441	1265.21436	704.87207	1483.77417	1166.46289	696.00043	1298.95178	1136.57056	642.97382	1161.64551	1125.07434	566.09485	1066.28308	1152.71313	470.95120	974.59827	1116.44812	508.18170	950.32159	1117.67065	445.11023	915.24091	1556.52661	589.68726	980.59473	1298.18835	615.75806	957.68884	1496.95605	810.49475	1011.92139	1384.53564	826.33093	1009.69525	1634.18091	592.60535	681.67743	1609.61255	566.48920	481.90198	1617.21216	575.24237	287.81451	1597.46899	523.25610	69.65242	1546.95081	556.14362	40.46952	1596.56641	366.55997	45.10729	1240.38159	758.58594	663.91211	1268.97705	807.66150	460.10959	1268.05786	931.42670	314.98288	1302.30017	1034.01843	149.91147	1359.42163	1084.29224	112.99428	1292.29956	912.68268	41.57488	1425.08411	694.89862	1788.46936	-3357.29932	2845.85376	1033.83923			 
